<svg id="Layer_1" data-name="Layer 1" xmlns="http://www.w3.org/2000/svg" viewBox="0 0 400 300"><g opacity="0.45"><path d="M246.72,33.81a38.09,38.09,0,0,0-23.85,8.06,53.92,53.92,0,0,0-14,16.64A54.3,54.3,0,0,0,195,41.67a38,38,0,0,0-23.73-8.39c-24.37-.18-42.88,19.63-43.07,46.06-.2,28.55,22.58,48.25,57.08,78.07,5.86,5.06,12.5,10.8,19.4,16.92a5,5,0,0,0,6.62,0c7-6,13.7-11.67,19.63-16.65,34.92-29.33,58-48.7,58.18-77.25C289.32,54.05,271.08,34,246.72,33.81Z" fill="#e6e6e6"/></g><path d="M234.81,105.76s-22.62,18.85-7.17,30.09S250.86,122,250.86,122l-3.52-19Z" fill="#ffd200"/><path d="M200,125.66s14.4,3.11,27.74,16S189.84,180.43,200,125.66Z" fill="#6183d5"/><path d="M227.76,141.62c13.34,12.84-37.92,38.81-27.74-16,0,0,14.4,3.11,27.74,16" fill="#fff" opacity="0.46"/><path d="M234.81,124l16.15.52s55.65,10.32,25.39,68a73.39,73.39,0,0,0-8.32,32.3H225.42l-1.86-7.7a75.71,75.71,0,0,0-13.7-29.08C201.46,177.38,195,155.78,234.81,124Z" fill="#6183d5"/><path d="M173.19,84.24S175,93,174.21,99a4.48,4.48,0,0,1-5.05,3.85c-3-.44-7-1.92-8.57-6.48L157,89s-2.07-4.73,2.5-8.92S172.35,78.86,173.19,84.24Z" fill="#f4a28c"/><polygon points="157.67 90.32 156.51 119.55 172.66 119.03 167.02 97.97 157.67 90.32" fill="#f4a28c"/><path d="M171,84.87a36,36,0,0,1-8.24.34,7.45,7.45,0,0,1,1,8.11,6.06,6.06,0,0,1-7,3.26l-1.2-11.4a9.08,9.08,0,0,1,3.62-8.59,31.79,31.79,0,0,1,3.58-2.31c3.12-1.71,8.18-.09,10.86-2.65a2.16,2.16,0,0,1,3.56,1c.92,3.4.95,8.93-3.51,11.38A8.7,8.7,0,0,1,171,84.87Z" fill="#ffd200"/><path d="M164.67,93s-.47-3.41-3-2.84-1.88,5.49,1.66,5.54Z" fill="#f4a28c"/><path d="M174.05,89.81l2.87,3.12a1.43,1.43,0,0,1-.62,2.33l-3.32,1Z" fill="#f4a28c"/><path d="M168.45,102.53a10.61,10.61,0,0,1-5.56-2.48s.86,5.29,7.32,9.84Z" fill="#ce8172" opacity="0.31"/><path d="M234.28,89.2s-1.81,8.74-1,14.79a4.47,4.47,0,0,0,5.05,3.85c3-.44,7-1.92,8.57-6.48l3.57-7.43s2.07-4.74-2.5-8.92S235.12,83.82,234.28,89.2Z" fill="#f4a28c"/><polygon points="249.8 95.28 250.96 124.51 234.81 123.99 240.45 102.93 249.8 95.28" fill="#f4a28c"/><path d="M242.8,97.9s.47-3.4,3-2.83,1.88,5.49-1.66,5.53Z" fill="#f4a28c"/><path d="M233.42,94.76l-2.87,3.13a1.43,1.43,0,0,0,.62,2.33l3.32,1Z" fill="#f4a28c"/><path d="M239,107.49a10.56,10.56,0,0,0,5.55-2.48s-.85,5.29-7.31,9.84Z" fill="#ce8172" opacity="0.31"/><path d="M235.42,76c-5.33,2.77-5.88,10.13-1.36,14.08a24.87,24.87,0,0,0,5.88,3.69c8.88,4.09-5.86,44,15.21,43.07S272,125.83,265,116,257.73,91,256.09,83C254.9,77.22,242.68,72.21,235.42,76Z" fill="#ffd200"/><path d="M156.51,119.55l16.15-.51s85.47-3.56,24.81,109.51H140S89.06,131.89,156.51,119.55Z" fill="#6183d5"/><path d="M151.44,141.62s8.08,12.38,2.47,32.8-7.73,37.74,4.21,54.13H140s-9.43-19.56-10.16-24S115.74,153.47,151.44,141.62Z" opacity="0.08"/><path d="M126.84,134.28c-9.82,8.73-18.77,22.81-20,45.3L140,186.9a211.33,211.33,0,0,0,11.17-38.83C153.82,134.22,137.38,124.9,126.84,134.28Z" fill="#6183d5"/><path d="M126.84,134.28c-9.82,8.73-18.77,22.81-20,45.3L140,186.9a211.33,211.33,0,0,0,11.17-38.83C153.82,134.22,137.38,124.9,126.84,134.28Z" fill="#fff" opacity="0.46"/><path d="M110.23,180.34s-6.57,60.14,0,84h11.32s.86-51.21,16.32-77.92Z" fill="#f4a28c"/><polygon points="139.98 228.55 136.47 264.36 200.02 264.36 197.47 228.55 139.98 228.55" fill="#24285b"/><polygon points="224.36 220.44 268.27 220.44 274.35 264.36 214.43 264.36 224.36 220.44" fill="#24285b"/><path d="M202.16,164.67s-8.63-1.12-8.28,6.62,10.18,22,1.58,27.23c-8.13,5-33.94,17-29.25,36.65a13.29,13.29,0,0,0,2.9,5.58l5.93,6.87a14.83,14.83,0,0,1,1.93,16.5l-.12.24h25.31l5.41-31.07,2.48-41.72Z" opacity="0.08"/><path d="M264.19,147.48s-19,11.29-16.85,36.87S237.26,214,237.26,214l3.66,8.4s22.66,21.3,11.42,42h22l-5.16-37.27,11-42.74Z" opacity="0.08"/><path d="M203.42,171.29s-4.87,20.82,4.52,21,7-21,7-21Z" fill="#f4a28c"/><path d="M199.84,172.65s-1,4.15,4.94,4.55a75.88,75.88,0,0,0,10.41,0s7.17-2.37,3.22-8.89-4.21.79-8.72-4.75-8.57-1.34-7.53,2.69S197.31,167.25,199.84,172.65Z" fill="#ffd200"/><path d="M213.33,188.39l1.86,13.31s3.42,5.53-3.7,6.72-9.68-1.78-5.13-6.52l1.18-13.51Z" fill="#f4a28c"/><path d="M262,152.36c3.29-13.23,21.81-14.63,27-2,2.94,7.17,4.64,16.35,3.2,27.81a98.49,98.49,0,0,1-15.6,42.75,14,14,0,0,1-18.37,4.46l-38.46-21,2.31-9,40.14,13.24S255.05,180.21,262,152.36Z" fill="#6183d5"/><path d="M262,152.36c3.29-13.23,21.81-14.63,27-2,2.94,7.17,4.64,16.35,3.2,27.81a98.49,98.49,0,0,1-15.6,42.75,14,14,0,0,1-18.37,4.46l-38.46-21,2.31-9,40.14,13.24S255.05,180.21,262,152.36Z" fill="#fff" opacity="0.46"/><path d="M215.19,177.2s5,.07,4.41,4.58-6.33,0-6.33,0Z" fill="#f4a28c"/><path d="M196.28,205.07c-5.83,2.7-14.58,8-18.83,17a14.48,14.48,0,0,0,2.37,15.88l11.48,12.72s-1.22,6.32,2.29,6.85S196,248,196,248l-8.3-13.2a4.13,4.13,0,0,1,2-6.07c5.82-2.22,14.55-7.57,13.56-19.55A5,5,0,0,0,196.28,205.07Z" fill="#f4a28c"/><polygon points="193.57 246.07 191.24 264.36 231.01 264.36 226.93 247.67 193.57 246.07" fill="#24285b"/><path d="M207.2,192.31s2.47.11,5.74-2.58c0,0-.11,5.13-6.08,6.43Z" fill="#ce8172" opacity="0.31"/><path d="M215.19,201.7s15.13-.3,16.51,14.58-4.77,31.39-4.77,31.39l-33.36-1.6S177.71,206,206.36,201.9Z" fill="#6183d5"/><path d="M216.47,209.94s-1.29,7.43,1.47,14a31,31,0,0,1,1.37,18.85l-1.11,4.91-3.77,16.69H231l-2.72-10,1.6-17.2s1.78-7.74,1.58-9.14S216.47,209.94,216.47,209.94Z" opacity="0.08"/><path d="M223.58,203.84c5.13,2.38,12.53,6.8,17.12,13.92A16.56,16.56,0,0,1,239,237.82l-10.48,11.6s1.23,6.32-2.28,6.85-2.46-9.48-2.46-9.48l7.85-12.46a4.86,4.86,0,0,0-2.26-7.08c-5.79-2.37-13.82-7.76-12.87-19.28A5,5,0,0,1,223.58,203.84Z" fill="#f4a28c"/><path d="M221.52,197.34s-4.94-4.26-8.25-2.15-3.1,5.77,1.92,6.51l5,.74Z" fill="#f4a28c"/><path d="M274.35,136.84s18,5.27,11,13.35S269,142.81,274.35,136.84Z" fill="#f4a28c"/></svg>